<svg width="164" height="55" viewBox="0 0 164 55" fill="none" xmlns="http://www.w3.org/2000/svg">
<g clip-path="url(#clip0_317_902)">
<path d="M27.4339 25.0896C22.555 25.0896 18.585 21.1279 18.585 16.2594C18.585 16.1261 18.6594 12.8593 25.1565 3.25344C25.923 2.11936 26.6938 1.0246 27.4339 0.00195312C28.1741 1.0246 28.9449 2.11936 29.7113 3.25344C36.2084 12.8593 36.2829 16.1261 36.2829 16.2594C36.2829 21.1279 32.3129 25.0896 27.4339 25.0896Z" fill="#0093AF"/>
<path d="M55.0253 25.1035C43.4829 25.3177 32.7091 28.7265 23.5579 34.4821C22.0733 35.4152 20.6324 36.4096 19.2353 37.4626C17.8667 38.4961 16.5419 39.5865 15.263 40.7294C14.0039 41.8549 12.7929 43.0304 11.6301 44.2541C10.6163 45.3227 9.64182 46.4283 8.70459 47.5668C9.88271 48.6702 11.1594 49.6711 12.517 50.5582C13.5835 49.2646 14.7068 48.0236 15.8806 46.8303C17.0389 45.6527 18.2499 44.525 19.5068 43.452C20.7835 42.3639 22.1061 41.3282 23.4747 40.3559C24.8674 39.3659 26.3105 38.4396 27.793 37.5764C35.8273 32.9001 45.112 30.1468 55.0188 29.948C55.0886 29.146 55.1326 28.3332 55.1326 27.5137C55.1326 26.6943 55.0911 25.9011 55.0209 25.1079L55.0253 25.1035Z" fill="#00A693"/>
<path d="M18.9636 31.7012C13.1781 28.5393 6.82995 26.2799 0.10949 25.1152C0.0416061 25.9062 0 26.7016 0 27.5101C0 28.3623 0.0437958 29.2058 0.120438 30.0384C5.23578 31.0064 10.1081 32.6626 14.6387 34.9092C16.0358 33.7837 17.4767 32.7107 18.9636 31.699V31.7012Z" fill="#00A693"/>
<path d="M10.6597 38.3865C7.61592 37.023 4.41664 35.946 1.09473 35.1875C1.67064 37.1697 2.46116 39.0596 3.44218 40.8273C4.65753 41.2055 5.85095 41.6315 7.02249 42.1035C8.18527 40.8186 9.39841 39.5776 10.6576 38.3865H10.6597Z" fill="#00A693"/>
<path d="M27.3705 43.5512C25.9997 44.4735 24.6749 45.461 23.4026 46.5054C22.1435 47.5413 20.9325 48.6339 19.7763 49.7811C18.7756 50.773 17.8165 51.809 16.8989 52.8794C18.5237 53.5612 20.2274 54.0922 21.9924 54.453C22.4238 53.9919 22.8661 53.5373 23.315 53.0939C24.4668 51.9597 25.6778 50.8845 26.9413 49.8728C28.2114 48.8567 29.534 47.9018 30.907 47.0212C32.2974 46.1275 33.7385 45.3081 35.2254 44.5608C40.4216 41.9515 46.1697 40.2844 52.2443 39.7752C53.0328 38.1997 53.672 36.5392 54.1493 34.8105C46.0494 35.1253 38.4225 37.3061 31.6888 40.9401C30.2041 41.7396 28.7632 42.6115 27.3727 43.549L27.3705 43.5512Z" fill="#00A693"/>
<path d="M34.0929 50.7425C32.7154 51.5967 31.3885 52.5298 30.1227 53.5329C29.5271 54.007 28.9424 54.4964 28.373 54.9989C29.2884 54.9728 30.1949 54.9029 31.0862 54.7892C32.8532 54.5642 34.5681 54.1751 36.2146 53.631C37.7913 53.1112 39.3088 52.4599 40.7455 51.6799C43.8154 50.0104 46.5307 47.7728 48.7556 45.1113C45.1249 45.7601 41.6541 46.8813 38.409 48.402C36.9221 49.0993 35.481 49.8814 34.0951 50.7403L34.0929 50.7425Z" fill="#00A693"/>
<path d="M75.7211 40.8236C74.8845 40.8236 74.0829 40.6925 73.3144 40.4302C72.5458 40.168 71.8733 39.7901 71.2974 39.2961C70.7216 38.8045 70.3056 38.2122 70.0537 37.5218L72.5302 36.615C72.6313 36.9034 72.837 37.1657 73.1479 37.4037C73.4566 37.642 73.8354 37.8322 74.2843 37.9764C74.7311 38.1205 75.2107 38.1926 75.7232 38.1926C76.2355 38.1926 76.7412 38.1118 77.1989 37.9503C77.6566 37.7884 78.0267 37.5612 78.307 37.2707C78.5895 36.9798 78.7298 36.639 78.7298 36.2499C78.7298 35.8612 78.5808 35.529 78.2852 35.2733C77.9896 35.0176 77.6108 34.8143 77.1487 34.6636C76.6867 34.5129 76.2115 34.397 75.7211 34.3184C74.6457 34.1525 73.6845 33.8967 72.8327 33.5515C71.983 33.2063 71.3083 32.7277 70.8157 32.1159C70.3209 31.5041 70.0755 30.7129 70.0755 29.7405C70.0755 28.8272 70.3384 28.0274 70.8662 27.3456C71.3916 26.6617 72.0838 26.1307 72.9421 25.7483C73.8005 25.3681 74.7268 25.1758 75.7211 25.1758C76.5507 25.1758 77.3501 25.3047 78.1209 25.5647C78.8916 25.8226 79.5685 26.2006 80.1488 26.6988C80.729 27.1948 81.1449 27.7936 81.399 28.4906L78.9116 29.3865C78.8106 29.0981 78.6048 28.8359 78.2939 28.5977C77.9831 28.3595 77.6064 28.1716 77.1575 28.0317C76.7107 27.8919 76.2311 27.822 75.7186 27.822C75.2063 27.8154 74.7224 27.8963 74.2647 28.0645C73.807 28.2328 73.4347 28.4622 73.1457 28.7507C72.8567 29.0391 72.712 29.3691 72.712 29.7427C72.712 30.2257 72.8479 30.5884 73.1173 30.8331C73.3889 31.0777 73.7499 31.257 74.2033 31.3686C74.6566 31.4798 75.1627 31.5827 75.7164 31.6765C76.726 31.8338 77.661 32.1004 78.5172 32.4764C79.3755 32.8499 80.0633 33.3483 80.5821 33.971C81.1013 34.5937 81.3619 35.3541 81.3619 36.2546C81.3619 37.1548 81.1013 37.9698 80.5821 38.6559C80.0633 39.342 79.3733 39.8774 78.5172 40.2578C77.6588 40.64 76.726 40.8302 75.7164 40.8302L75.7211 40.8236Z" fill="white"/>
<path d="M92.6806 29.7509H95.3196V40.5434H92.6806L92.5624 39.206C92.2669 39.6888 91.8771 40.0779 91.3889 40.3771C90.9003 40.6767 90.3266 40.8252 89.6631 40.8252C88.864 40.8252 88.1129 40.6745 87.4142 40.3728C86.7158 40.0714 86.1003 39.654 85.5706 39.1208C85.0406 38.5876 84.6268 37.9736 84.3266 37.2744C84.0267 36.5772 83.8779 35.8277 83.8779 35.0303C83.8779 34.2327 84.0201 33.5379 84.3048 32.8605C84.5894 32.1852 84.9879 31.5908 85.5005 31.0793C86.0127 30.5681 86.6042 30.1683 87.2742 29.882C87.9442 29.5958 88.667 29.4493 89.4377 29.4493C90.1514 29.4493 90.7909 29.6089 91.358 29.9235C91.923 30.2404 92.4047 30.6424 92.8013 31.1318L92.6828 29.7509H92.6806ZM89.5977 38.2884C90.1604 38.2884 90.6574 38.1485 91.0908 37.8664C91.5245 37.5867 91.8619 37.2067 92.1069 36.7282C92.3523 36.2496 92.4748 35.7229 92.4748 35.1459C92.4748 34.5692 92.3523 34.0338 92.1069 33.5531C91.8619 33.0746 91.5201 32.6942 91.0843 32.4146C90.6487 32.1349 90.1514 31.9929 89.5977 31.9929C89.0436 31.9929 88.5354 32.1349 88.0777 32.4189C87.62 32.7029 87.2568 33.0833 86.9852 33.5574C86.7158 34.0316 86.5799 34.5605 86.5799 35.1437C86.5799 35.7273 86.7158 36.2562 86.9917 36.7303C87.2655 37.2045 87.6312 37.5824 88.0886 37.8642C88.5463 38.1439 89.0502 38.2862 89.5977 38.2862V38.2884Z" fill="white"/>
<path d="M101.203 45.9405H98.5645V29.7506H101.203V31.1206C101.556 30.6313 101.992 30.2336 102.506 29.9276C103.021 29.6217 103.625 29.4688 104.317 29.4688C105.11 29.4688 105.85 29.6152 106.533 29.9101C107.218 30.2052 107.821 30.6138 108.344 31.1359C108.867 31.6582 109.275 32.2614 109.566 32.9431C109.857 33.627 110.004 34.3613 110.004 35.1459C110.004 35.9302 109.857 36.6666 109.566 37.3593C109.275 38.0497 108.865 38.6572 108.344 39.1774C107.821 39.6997 107.218 40.1083 106.533 40.4032C105.848 40.6981 105.11 40.8469 104.317 40.8469C103.625 40.8469 103.021 40.6938 102.506 40.388C101.992 40.0819 101.556 39.6842 101.203 39.1948V45.9405ZM104.286 32.0056C103.739 32.0056 103.248 32.1476 102.815 32.4319C102.381 32.716 102.044 33.096 101.799 33.5702C101.554 34.0443 101.431 34.571 101.431 35.1459C101.431 35.7204 101.554 36.2493 101.799 36.7278C102.044 37.2064 102.384 37.5864 102.815 37.8729C103.246 38.1569 103.737 38.2989 104.286 38.2989C104.836 38.2989 105.351 38.1591 105.81 37.8773C106.27 37.5954 106.64 37.2173 106.914 36.7387C107.188 36.2602 107.326 35.7291 107.326 35.1459C107.326 34.5623 107.19 34.0443 106.914 33.5702C106.638 33.096 106.275 32.716 105.817 32.4319C105.36 32.1476 104.849 32.0056 104.286 32.0056Z" fill="white"/>
<path d="M112.798 40.5434L112.787 29.7509H115.426L115.437 30.7124C115.805 30.3234 116.245 30.0153 116.757 29.7902C117.27 29.5652 117.822 29.4493 118.413 29.4493C118.809 29.4493 119.205 29.5062 119.602 29.622L118.564 32.2769C118.29 32.17 118.017 32.1153 117.743 32.1153C117.318 32.1153 116.93 32.2179 116.58 32.4233C116.23 32.6287 115.952 32.9061 115.748 33.2535C115.542 33.6034 115.439 33.99 115.439 34.4141V40.5434H112.8H112.798Z" fill="white"/>
<path d="M126.145 40.8252C125.151 40.8252 124.242 40.5695 123.425 40.0584C122.607 39.5469 121.954 38.863 121.468 38.0022C120.982 37.1433 120.739 36.1906 120.739 35.1484C120.739 34.3573 120.879 33.6187 121.161 32.9304C121.442 32.2443 121.829 31.639 122.324 31.1167C122.819 30.5945 123.393 30.1858 124.05 29.8909C124.707 29.5959 125.405 29.4473 126.147 29.4473C127.142 29.4473 128.048 29.7029 128.867 30.2143C129.686 30.7256 130.339 31.4119 130.825 32.2748C131.311 33.138 131.554 34.095 131.554 35.1463C131.554 35.9306 131.414 36.6648 131.131 37.3487C130.849 38.0327 130.463 38.6358 129.969 39.156C129.474 39.678 128.902 40.0866 128.25 40.3818C127.597 40.6767 126.896 40.8252 126.145 40.8252ZM126.145 38.1921C126.671 38.1921 127.144 38.0522 127.562 37.7704C127.98 37.4908 128.311 37.1194 128.552 36.6583C128.793 36.1972 128.913 35.6947 128.913 35.1463C128.913 34.5975 128.788 34.0733 128.539 33.6078C128.291 33.1445 127.954 32.7732 127.534 32.4957C127.111 32.2179 126.649 32.0802 126.143 32.0802C125.637 32.0802 125.156 32.2201 124.737 32.5022C124.319 32.7841 123.988 33.1576 123.743 33.6252C123.498 34.0929 123.375 34.6 123.375 35.1463C123.375 35.6925 123.502 36.2301 123.754 36.6887C124.006 37.1477 124.343 37.5147 124.766 37.7835C125.188 38.0544 125.648 38.1877 126.145 38.1877V38.1921Z" fill="white"/>
<path d="M136.972 45.9405H134.333V29.7506H136.972V31.1206C137.324 30.6313 137.76 30.2336 138.275 29.9276C138.789 29.6217 139.394 29.4688 140.085 29.4688C140.878 29.4688 141.618 29.6152 142.304 29.9101C142.989 30.2052 143.591 30.6138 144.115 31.1359C144.638 31.6582 145.045 32.2614 145.337 32.9431C145.628 33.6249 145.775 34.3613 145.775 35.1459C145.775 35.9302 145.628 36.6666 145.337 37.3593C145.045 38.0519 144.638 38.6572 144.115 39.1774C143.591 39.6997 142.989 40.1083 142.304 40.4032C141.618 40.6981 140.88 40.8469 140.085 40.8469C139.394 40.8469 138.789 40.6938 138.275 40.388C137.758 40.0819 137.324 39.6842 136.972 39.1948V45.9405ZM140.055 32.0056C139.507 32.0056 139.017 32.1476 138.583 32.4319C138.152 32.716 137.813 33.096 137.567 33.5702C137.322 34.0443 137.199 34.571 137.199 35.1459C137.199 35.7204 137.322 36.2493 137.567 36.7278C137.813 37.2064 138.152 37.5864 138.583 37.8729C139.017 38.1569 139.505 38.2989 140.055 38.2989C140.604 38.2989 141.119 38.1591 141.579 37.8773C142.039 37.5954 142.409 37.2173 142.683 36.7387C142.956 36.2602 143.094 35.7291 143.094 35.1459C143.094 34.5623 142.956 34.0443 142.683 33.5702C142.409 33.096 142.043 32.716 141.585 32.4319C141.128 32.1476 140.618 32.0056 140.055 32.0056Z" fill="white"/>
<path d="M153.346 40.8252C152.352 40.8252 151.443 40.5695 150.627 40.0584C149.808 39.5469 149.155 38.8608 148.669 37.9979C148.183 37.1346 147.94 36.1819 147.94 35.1372C147.94 34.353 148.08 33.6165 148.362 32.9304C148.643 32.2443 149.03 31.639 149.525 31.1167C150.02 30.5945 150.594 30.1858 151.251 29.8909C151.908 29.5959 152.606 29.4473 153.349 29.4473C154.192 29.4473 154.965 29.6265 155.668 29.9826C156.371 30.3388 156.968 30.8261 157.459 31.4445C157.949 32.0628 158.306 32.7688 158.53 33.5596C158.753 34.3508 158.804 35.1789 158.681 36.0421H150.773C150.874 36.4442 151.041 36.8068 151.27 37.1259C151.501 37.4469 151.794 37.7005 152.147 37.8928C152.499 38.083 152.9 38.1834 153.346 38.1899C153.808 38.1964 154.229 38.0874 154.606 37.8602C154.984 37.6328 155.3 37.3248 155.552 36.938L158.245 37.565C157.805 38.5221 157.148 39.3045 156.277 39.912C155.405 40.5195 154.426 40.8231 153.346 40.8231V40.8252ZM150.686 34.0689H156.007C155.928 33.6361 155.76 33.2474 155.503 32.8975C155.247 32.5479 154.932 32.2704 154.557 32.0607C154.183 31.8531 153.778 31.7484 153.346 31.7484C152.915 31.7484 152.514 31.8509 152.147 32.0563C151.779 32.2617 151.468 32.5392 151.212 32.8866C150.955 33.2362 150.78 33.6296 150.688 34.0689H150.686Z" fill="white"/>
<path d="M161.361 40.543V24.3556H164V40.5452H161.361V40.543Z" fill="white"/>
</g>
<defs>
<clipPath id="clip0_317_902">
<rect width="164" height="55" fill="white"/>
</clipPath>
</defs>
</svg>
