<svg width="164" height="55" viewBox="0 0 164 55" fill="none" xmlns="http://www.w3.org/2000/svg">
<g clip-path="url(#clip0_405_249)">
<path d="M27.4339 25.0896C22.555 25.0896 18.585 21.1279 18.585 16.2594C18.585 16.1261 18.6594 12.8593 25.1565 3.25344C25.923 2.11936 26.6938 1.0246 27.4339 0.00195312C28.1741 1.0246 28.9449 2.11936 29.7113 3.25344C36.2084 12.8593 36.2829 16.1261 36.2829 16.2594C36.2829 21.1279 32.3129 25.0896 27.4339 25.0896Z" fill="#0093AF"/>
<path d="M55.0253 25.1035C43.4829 25.3177 32.7091 28.7265 23.5579 34.4821C22.0733 35.4152 20.6324 36.4096 19.2353 37.4626C17.8667 38.4961 16.5419 39.5865 15.263 40.7294C14.0039 41.8549 12.7929 43.0304 11.6301 44.2541C10.6163 45.3227 9.64182 46.4283 8.70459 47.5668C9.88271 48.6702 11.1594 49.6711 12.517 50.5582C13.5835 49.2646 14.7068 48.0236 15.8806 46.8303C17.0389 45.6527 18.2499 44.525 19.5068 43.452C20.7835 42.3639 22.1061 41.3282 23.4747 40.3559C24.8674 39.3659 26.3105 38.4396 27.793 37.5764C35.8273 32.9001 45.112 30.1468 55.0188 29.948C55.0886 29.146 55.1326 28.3332 55.1326 27.5137C55.1326 26.6943 55.0911 25.9011 55.0209 25.1079L55.0253 25.1035Z" fill="#00A693"/>
<path d="M18.9636 31.7003C13.1781 28.5384 6.82995 26.279 0.10949 25.1143C0.0416061 25.9053 0 26.7007 0 27.5092C0 28.3615 0.0437958 29.2049 0.120438 30.0375C5.23578 31.0055 10.1081 32.6617 14.6387 34.9083C16.0358 33.7828 17.4767 32.7098 18.9636 31.6981V31.7003Z" fill="#00A693"/>
<path d="M10.6597 38.3855C7.61592 37.022 4.41664 35.945 1.09473 35.1865C1.67064 37.1687 2.46116 39.0586 3.44218 40.8264C4.65753 41.2045 5.85095 41.6305 7.02249 42.1025C8.18527 40.8177 9.3984 39.5766 10.6576 38.3855H10.6597Z" fill="#00A693"/>
<path d="M27.3703 43.5521C25.9995 44.4743 24.6747 45.4618 23.4024 46.5062C22.1433 47.5422 20.9323 48.6347 19.7761 49.782C18.7753 50.7738 17.8162 51.8098 16.8987 52.8803C18.5235 53.5621 20.2272 54.0931 21.9921 54.4539C22.4235 53.9927 22.8659 53.5381 23.3148 53.0947C24.4666 51.9605 25.6775 50.8854 26.9411 49.8736C28.2112 48.8575 29.5338 47.9026 30.9068 47.022C32.2972 46.1284 33.7382 45.3089 35.2252 44.5616C40.4214 41.9524 46.1695 40.2853 52.2441 39.776C53.0326 38.2006 53.6717 36.54 54.1491 34.8114C46.0492 35.1262 38.4222 37.3069 31.6886 40.941C30.2039 41.7405 28.763 42.6124 27.3725 43.5499L27.3703 43.5521Z" fill="#00A693"/>
<path d="M34.0927 50.7416C32.7152 51.5958 31.3882 52.5289 30.1224 53.532C29.5268 54.0062 28.9422 54.4956 28.3728 54.998C29.2881 54.9719 30.1947 54.902 31.0859 54.7883C32.853 54.5633 34.5678 54.1743 36.2144 53.6302C37.7911 53.1103 39.3085 52.459 40.7453 51.6791C43.8151 50.0095 46.5305 47.7719 48.7554 45.1105C45.1246 45.7593 41.6538 46.8804 38.4087 48.4012C36.9218 49.0984 35.4807 49.8806 34.0948 50.7394L34.0927 50.7416Z" fill="#00A693"/>
<path d="M75.7211 40.8246C74.8845 40.8246 74.0829 40.6935 73.3144 40.4312C72.5458 40.169 71.8733 39.7911 71.2974 39.297C70.7216 38.8054 70.3056 38.2132 70.0537 37.5227L72.5302 36.616C72.6313 36.9044 72.837 37.1666 73.1479 37.4047C73.4566 37.643 73.8354 37.8332 74.2843 37.9773C74.7311 38.1215 75.2107 38.1936 75.7232 38.1936C76.2355 38.1936 76.7412 38.1128 77.1989 37.9512C77.6566 37.7893 78.0267 37.5622 78.307 37.2717C78.5895 36.9808 78.7298 36.6399 78.7298 36.2509C78.7298 35.8622 78.5808 35.53 78.2852 35.2743C77.9896 35.0185 77.6108 34.8153 77.1487 34.6646C76.6867 34.5139 76.2115 34.398 75.7211 34.3194C74.6457 34.1534 73.6845 33.8977 72.8327 33.5525C71.983 33.2073 71.3083 32.7287 70.8157 32.1169C70.3209 31.5051 70.0755 30.7139 70.0755 29.7415C70.0755 28.8281 70.3384 28.0284 70.8662 27.3466C71.3916 26.6627 72.0838 26.1317 72.9421 25.7493C73.8005 25.369 74.7268 25.1768 75.7211 25.1768C76.5507 25.1768 77.3501 25.3057 78.1209 25.5657C78.8916 25.8236 79.5685 26.2016 80.1488 26.6998C80.729 27.1958 81.1449 27.7945 81.399 28.4916L78.9116 29.3875C78.8106 29.0991 78.6048 28.8369 78.2939 28.5987C77.9831 28.3605 77.6064 28.1726 77.1575 28.0327C76.7107 27.8929 76.2311 27.823 75.7186 27.823C75.2063 27.8164 74.7224 27.8973 74.2647 28.0655C73.807 28.2338 73.4347 28.4632 73.1457 28.7516C72.8567 29.0401 72.712 29.37 72.712 29.7437C72.712 30.2266 72.8479 30.5893 73.1173 30.8341C73.3889 31.0787 73.7499 31.258 74.2033 31.3696C74.6566 31.4808 75.1626 31.5837 75.7164 31.6775C76.726 31.8347 77.661 32.1014 78.5172 32.4773C79.3755 32.8508 80.0633 33.3493 80.5821 33.972C81.1013 34.5947 81.3619 35.3551 81.3619 36.2556C81.3619 37.1558 81.1013 37.9708 80.5821 38.6569C80.0633 39.343 79.3733 39.8784 78.5172 40.2588C77.6588 40.641 76.726 40.8311 75.7164 40.8311L75.7211 40.8246Z" fill="black"/>
<path d="M92.6806 29.7509H95.3196V40.5434H92.6806L92.5624 39.206C92.2669 39.6889 91.8771 40.0779 91.3889 40.3771C90.9003 40.6767 90.3266 40.8252 89.6631 40.8252C88.864 40.8252 88.1129 40.6745 87.4142 40.3728C86.7158 40.0714 86.1003 39.6541 85.5706 39.1208C85.0406 38.5876 84.6268 37.9736 84.3266 37.2745C84.0267 36.5772 83.8779 35.8277 83.8779 35.0303C83.8779 34.2327 84.0201 33.5379 84.3048 32.8605C84.5894 32.1853 84.9879 31.5908 85.5005 31.0793C86.0127 30.5682 86.6042 30.1683 87.2742 29.882C87.9442 29.5958 88.667 29.4494 89.4377 29.4494C90.1514 29.4494 90.7909 29.6089 91.358 29.9235C91.923 30.2404 92.4047 30.6425 92.8013 31.1319L92.6828 29.7509H92.6806ZM89.5977 38.2884C90.1604 38.2884 90.6574 38.1486 91.0908 37.8664C91.5245 37.5868 91.8619 37.2067 92.1069 36.7282C92.3523 36.2497 92.4748 35.723 92.4748 35.1459C92.4748 34.5692 92.3523 34.0338 92.1069 33.5531C91.8619 33.0746 91.5201 32.6942 91.0843 32.4146C90.6487 32.1349 90.1514 31.9929 89.5977 31.9929C89.0436 31.9929 88.5354 32.1349 88.0777 32.4189C87.62 32.7029 87.2568 33.0833 86.9852 33.5575C86.7158 34.0316 86.5799 34.5605 86.5799 35.1438C86.5799 35.7273 86.7158 36.2562 86.9917 36.7304C87.2655 37.2045 87.6312 37.5824 88.0886 37.8642C88.5463 38.1439 89.0502 38.2862 89.5977 38.2862V38.2884Z" fill="black"/>
<path d="M101.203 45.9405H98.5645V29.7506H101.203V31.1206C101.556 30.6313 101.992 30.2336 102.506 29.9276C103.021 29.6217 103.625 29.4688 104.317 29.4688C105.11 29.4688 105.85 29.6152 106.533 29.9101C107.218 30.2052 107.821 30.6138 108.344 31.1359C108.867 31.6582 109.275 32.2614 109.566 32.9431C109.857 33.627 110.004 34.3613 110.004 35.1459C110.004 35.9302 109.857 36.6666 109.566 37.3593C109.275 38.0497 108.865 38.6572 108.344 39.1774C107.821 39.6997 107.218 40.1083 106.533 40.4032C105.848 40.6981 105.11 40.8469 104.317 40.8469C103.625 40.8469 103.021 40.6938 102.506 40.388C101.992 40.0819 101.556 39.6842 101.203 39.1948V45.9405ZM104.286 32.0056C103.739 32.0056 103.248 32.1476 102.815 32.4319C102.381 32.716 102.044 33.096 101.799 33.5702C101.554 34.0443 101.431 34.571 101.431 35.1459C101.431 35.7204 101.554 36.2493 101.799 36.7278C102.044 37.2064 102.384 37.5864 102.815 37.8729C103.246 38.1569 103.737 38.2989 104.286 38.2989C104.836 38.2989 105.351 38.1591 105.81 37.8773C106.27 37.5954 106.64 37.2173 106.914 36.7387C107.188 36.2602 107.326 35.7291 107.326 35.1459C107.326 34.5623 107.19 34.0443 106.914 33.5702C106.638 33.096 106.275 32.716 105.817 32.4319C105.36 32.1476 104.849 32.0056 104.286 32.0056Z" fill="black"/>
<path d="M112.798 40.5434L112.787 29.7509H115.426L115.437 30.7124C115.805 30.3234 116.245 30.0153 116.757 29.7903C117.27 29.5652 117.822 29.4494 118.413 29.4494C118.809 29.4494 119.205 29.5062 119.602 29.622L118.564 32.2769C118.29 32.17 118.017 32.1153 117.743 32.1153C117.318 32.1153 116.93 32.2179 116.58 32.4233C116.23 32.6287 115.952 32.9062 115.748 33.2536C115.542 33.6034 115.439 33.99 115.439 34.4142V40.5434H112.8H112.798Z" fill="black"/>
<path d="M126.145 40.8252C125.151 40.8252 124.242 40.5695 123.425 40.0584C122.607 39.5469 121.954 38.863 121.468 38.0022C120.982 37.1433 120.739 36.1906 120.739 35.1484C120.739 34.3573 120.879 33.6187 121.161 32.9304C121.442 32.2443 121.829 31.639 122.324 31.1167C122.819 30.5945 123.393 30.1858 124.05 29.8909C124.707 29.5959 125.405 29.4473 126.147 29.4473C127.142 29.4473 128.048 29.7029 128.867 30.2143C129.686 30.7256 130.339 31.4119 130.825 32.2748C131.311 33.138 131.554 34.095 131.554 35.1463C131.554 35.9306 131.414 36.6648 131.131 37.3487C130.849 38.0327 130.463 38.6358 129.969 39.156C129.474 39.678 128.902 40.0866 128.25 40.3818C127.597 40.6767 126.896 40.8252 126.145 40.8252ZM126.145 38.1921C126.671 38.1921 127.144 38.0522 127.562 37.7704C127.98 37.4908 128.311 37.1194 128.552 36.6583C128.793 36.1972 128.913 35.6947 128.913 35.1463C128.913 34.5975 128.788 34.0733 128.539 33.6078C128.291 33.1445 127.954 32.7732 127.534 32.4957C127.111 32.2179 126.649 32.0802 126.143 32.0802C125.637 32.0802 125.156 32.2201 124.737 32.5022C124.319 32.7841 123.988 33.1576 123.743 33.6252C123.498 34.0929 123.375 34.6 123.375 35.1463C123.375 35.6925 123.502 36.2301 123.754 36.6887C124.006 37.1477 124.343 37.5147 124.766 37.7835C125.188 38.0544 125.648 38.1877 126.145 38.1877V38.1921Z" fill="black"/>
<path d="M136.972 45.9405H134.333V29.7506H136.972V31.1206C137.324 30.6313 137.76 30.2336 138.275 29.9276C138.789 29.6217 139.394 29.4688 140.085 29.4688C140.878 29.4688 141.618 29.6152 142.304 29.9101C142.989 30.2052 143.591 30.6138 144.115 31.1359C144.638 31.6582 145.045 32.2614 145.337 32.9431C145.628 33.6249 145.775 34.3613 145.775 35.1459C145.775 35.9302 145.628 36.6666 145.337 37.3593C145.045 38.0519 144.638 38.6572 144.115 39.1774C143.591 39.6997 142.989 40.1083 142.304 40.4032C141.618 40.6981 140.88 40.8469 140.085 40.8469C139.394 40.8469 138.789 40.6938 138.275 40.388C137.758 40.0819 137.324 39.6842 136.972 39.1948V45.9405ZM140.055 32.0056C139.507 32.0056 139.017 32.1476 138.583 32.4319C138.152 32.716 137.813 33.096 137.567 33.5702C137.322 34.0443 137.199 34.571 137.199 35.1459C137.199 35.7204 137.322 36.2493 137.567 36.7278C137.813 37.2064 138.152 37.5864 138.583 37.8729C139.017 38.1569 139.505 38.2989 140.055 38.2989C140.604 38.2989 141.119 38.1591 141.579 37.8773C142.039 37.5954 142.409 37.2173 142.683 36.7387C142.956 36.2602 143.094 35.7291 143.094 35.1459C143.094 34.5623 142.956 34.0443 142.683 33.5702C142.409 33.096 142.043 32.716 141.585 32.4319C141.128 32.1476 140.618 32.0056 140.055 32.0056Z" fill="black"/>
<path d="M153.346 40.8252C152.352 40.8252 151.443 40.5695 150.627 40.0584C149.808 39.5469 149.155 38.8608 148.669 37.9979C148.183 37.1346 147.94 36.1819 147.94 35.1372C147.94 34.353 148.08 33.6165 148.362 32.9304C148.643 32.2443 149.03 31.639 149.525 31.1167C150.02 30.5945 150.594 30.1858 151.251 29.8909C151.908 29.5959 152.606 29.4473 153.349 29.4473C154.192 29.4473 154.965 29.6265 155.668 29.9826C156.371 30.3388 156.968 30.8261 157.459 31.4445C157.949 32.0628 158.306 32.7688 158.53 33.5596C158.753 34.3508 158.804 35.1789 158.681 36.0421H150.773C150.874 36.4442 151.041 36.8068 151.27 37.1259C151.501 37.4469 151.794 37.7005 152.147 37.8928C152.499 38.083 152.9 38.1834 153.346 38.1899C153.808 38.1964 154.229 38.0874 154.606 37.8602C154.984 37.6328 155.3 37.3248 155.552 36.938L158.245 37.565C157.805 38.5221 157.148 39.3045 156.277 39.912C155.405 40.5195 154.426 40.8231 153.346 40.8231V40.8252ZM150.686 34.0689H156.007C155.928 33.6361 155.76 33.2474 155.503 32.8975C155.247 32.5479 154.932 32.2704 154.557 32.0607C154.183 31.8531 153.778 31.7484 153.346 31.7484C152.915 31.7484 152.514 31.8509 152.147 32.0563C151.779 32.2617 151.468 32.5392 151.212 32.8866C150.955 33.2362 150.78 33.6296 150.688 34.0689H150.686Z" fill="black"/>
<path d="M161.361 40.5431V24.3556H164V40.5453H161.361V40.5431Z" fill="black"/>
</g>
<defs>
<clipPath id="clip0_405_249">
<rect width="164" height="55" fill="white"/>
</clipPath>
</defs>
</svg>
