<svg width="89" height="89" viewBox="0 0 89 89" fill="none" xmlns="http://www.w3.org/2000/svg">
<circle cx="44.5" cy="44.5" r="43.5" stroke="#00A693" stroke-width="2"/>
<circle cx="44.155" cy="44.5002" r="35.2209" stroke="#00A693" stroke-width="2"/>
<circle cx="44.5" cy="44.5" r="26.2519" stroke="#0093AF" stroke-width="2"/>
<path d="M46 52C46 51.66 46.04 51.33 46.09 51H37V41L45 46L53 41V46.09C53.72 46.21 54.39 46.46 55 46.81V39C55 37.9 54.1 37 53 37H37C35.9 37 35 37.9 35 39V51C35 52.1 35.9 53 37 53H46.09C46.04 52.67 46 52.34 46 52ZM53 39L45 44L37 39H53ZM50.75 55.16L48 52.16L49.16 51L50.75 52.59L54.34 49L55.5 50.41L50.75 55.16Z" fill="#00A693"/>
</svg>
